<svg width="68" height="74" viewBox="0 0 68 74" fill="none" xmlns="http://www.w3.org/2000/svg">
<g clip-path="url(#clip0_436_8952)">
<path d="M34 33.3616C35.8999 33.3616 37.7204 34.1073 39.0638 35.4339L65.9013 61.9348C68.6996 64.6979 68.6996 69.1723 65.9013 71.9276C63.1031 74.6907 58.5719 74.6907 55.7816 71.9276L34 50.4192L12.2184 71.9276C9.42016 74.6907 4.88894 74.6907 2.09867 71.9276C-0.699557 69.1645 -0.699557 64.6901 2.09867 61.9348L28.9362 35.4339C30.2796 34.1073 32.1001 33.3616 34 33.3616Z" fill="#243A5E"/>
<path d="M34 -1.48619e-06C35.8284 -1.40627e-06 37.6647 0.690781 39.0638 2.07234L65.9013 28.5732C68.6996 31.3364 68.6996 35.8108 65.9013 38.566C63.1031 41.3292 58.5719 41.3292 55.7816 38.566L34 17.0576L12.2184 38.566C9.42016 41.3292 4.88894 41.3292 2.09867 38.566C-0.699557 35.8029 -0.699557 31.3285 2.09867 28.5732L28.9362 2.07234C30.3353 0.69078 32.1637 -1.56646e-06 34 -1.48619e-06Z" fill="#243A5E"/>
</g>
<defs>
<clipPath id="clip0_436_8952">
<rect width="74" height="68" fill="white" transform="translate(68) rotate(90)"/>
</clipPath>
</defs>
</svg>
