<svg width="234" height="213" viewBox="0 0 234 213" fill="none" xmlns="http://www.w3.org/2000/svg">
<g clip-path="url(#clip0_436_8949)">
<path d="M105.495 106.5C105.495 100.549 107.853 94.8465 112.048 90.6383L195.848 6.57377C204.586 -2.19126 218.734 -2.19126 227.447 6.57377C236.184 15.3388 236.184 29.5321 227.447 38.2723L159.434 106.5L227.447 174.728C236.184 183.493 236.184 197.686 227.447 206.426C218.709 215.191 204.561 215.191 195.848 206.426L112.048 122.362C107.853 118.153 105.495 112.451 105.495 106.5Z" fill="#FFB900"/>
<path d="M0 106.5C0 100.773 2.18436 95.0208 6.55309 90.6383L90.3533 6.57377C99.0907 -2.19126 113.239 -2.19126 121.952 6.57377C130.69 15.3388 130.69 29.5322 121.952 38.2723L53.9389 106.5L121.952 174.728C130.69 183.493 130.69 197.686 121.952 206.426C113.215 215.191 99.0659 215.191 90.3533 206.426L6.55309 122.362C2.18436 117.979 0 112.252 0 106.5Z" fill="#FFB900"/>
</g>
<defs>
<clipPath id="clip0_436_8949">
<rect width="234" height="213" fill="white"/>
</clipPath>
</defs>
</svg>
