<svg width="42" height="98" viewBox="0 0 42 98" fill="none" xmlns="http://www.w3.org/2000/svg">
<g clip-path="url(#clip0_436_8955)">
<path d="M21 98C9.40452 98 0 88.5956 0 77.0003V20.9997C0 9.40436 9.40452 0 21 0C32.5955 0 42 9.40436 42 20.9997V77.0003C42 88.6005 32.5955 98 21 98Z" fill="white"/>
<path d="M21 95.1978C31.0503 95.1978 39.1977 87.0505 39.1977 77.0004C39.1977 66.9502 31.0503 58.803 21 58.803C10.9497 58.803 2.80231 66.9502 2.80231 77.0004C2.80231 87.0505 10.9497 95.1978 21 95.1978Z" fill="#7BCFFE"/>
<path d="M21 61.6003C29.49 61.6003 36.4003 68.5105 36.4003 77.0004C36.4003 85.4902 29.49 92.4004 21 92.4004C12.51 92.4004 5.59967 85.4902 5.59967 77.0004C5.59967 68.5105 12.51 61.6003 21 61.6003ZM21 56.0007C9.40452 56.0007 0 65.4002 0 77.0004C0 88.6006 9.40452 98 21 98C32.5955 98 42 88.6006 42 77.0004C42 65.4002 32.5955 56.0007 21 56.0007Z" fill="white"/>
</g>
<defs>
<clipPath id="clip0_436_8955">
<rect width="42" height="98" fill="white"/>
</clipPath>
</defs>
</svg>
